<svg width="285" height="285" viewBox="0 0 285 285" fill="none" xmlns="http://www.w3.org/2000/svg">
<rect width="285" height="285" fill="#003E27"/>
<path d="M119.533 134V130.414C118.127 133.098 116.006 134.439 113.17 134.439C110.873 134.439 109.062 133.602 107.738 131.926C106.426 130.25 105.77 127.959 105.77 125.053C105.77 121.877 106.514 119.322 108.002 117.389C109.502 115.455 111.471 114.488 113.908 114.488C116.17 114.488 118.045 115.355 119.533 117.09V106.244H123.014V134H119.533ZM119.533 119.463C117.74 117.881 116.041 117.09 114.436 117.09C111.119 117.09 109.461 119.627 109.461 124.701C109.461 129.166 110.938 131.398 113.891 131.398C115.812 131.398 117.693 130.35 119.533 128.252V119.463ZM139.801 131.574C137.727 133.484 135.729 134.439 133.807 134.439C132.225 134.439 130.912 133.947 129.869 132.963C128.826 131.967 128.305 130.713 128.305 129.201C128.305 127.115 129.178 125.516 130.924 124.402C132.682 123.277 135.195 122.715 138.465 122.715H139.291V120.412C139.291 118.197 138.154 117.09 135.881 117.09C134.053 117.09 132.078 117.652 129.957 118.777V115.912C132.289 114.963 134.475 114.488 136.514 114.488C138.646 114.488 140.217 114.969 141.225 115.93C142.244 116.891 142.754 118.385 142.754 120.412V129.061C142.754 131.041 143.363 132.031 144.582 132.031C144.734 132.031 144.957 132.008 145.25 131.961L145.496 133.877C144.711 134.252 143.844 134.439 142.895 134.439C141.277 134.439 140.246 133.484 139.801 131.574ZM139.291 129.693V124.754L138.131 124.719C136.232 124.719 134.697 125.082 133.525 125.809C132.354 126.523 131.768 127.467 131.768 128.639C131.768 129.471 132.061 130.174 132.646 130.748C133.232 131.322 133.947 131.609 134.791 131.609C136.232 131.609 137.732 130.971 139.291 129.693ZM149.855 134V114.91H153.318V118.496C154.689 115.824 156.682 114.488 159.295 114.488C159.646 114.488 160.016 114.518 160.402 114.576V117.811C159.805 117.611 159.277 117.512 158.82 117.512C156.629 117.512 154.795 118.812 153.318 121.414V134H149.855ZM164.586 134V106.244H168.049V124.174L176.135 114.91H179.861L172.145 123.822L181.461 134H177.031L168.049 124.209V134H164.586ZM96.6816 183.346L97.0859 180.34C99.0898 181.289 101.064 181.764 103.01 181.764C106.912 181.764 108.863 179.695 108.863 175.559V172.553C107.586 175.225 105.488 176.561 102.57 176.561C100.285 176.561 98.4688 175.729 97.1211 174.064C95.7734 172.4 95.0996 170.156 95.0996 167.332C95.0996 164.426 95.8672 162.059 97.4023 160.23C98.9375 158.402 100.924 157.488 103.361 157.488C105.494 157.488 107.328 158.355 108.863 160.09V157.91H112.344V171.797C112.344 174.785 112.186 176.994 111.869 178.424C111.564 179.865 110.984 181.043 110.129 181.957C108.617 183.562 106.268 184.365 103.08 184.365C100.854 184.365 98.7207 184.025 96.6816 183.346ZM108.863 170.391V162.463C107.34 160.881 105.682 160.09 103.889 160.09C102.295 160.09 101.047 160.729 100.145 162.006C99.2422 163.283 98.791 165.035 98.791 167.262C98.791 171.445 100.262 173.537 103.203 173.537C105.207 173.537 107.094 172.488 108.863 170.391ZM119.076 177V157.91H122.539V161.496C123.91 158.824 125.902 157.488 128.516 157.488C128.867 157.488 129.236 157.518 129.623 157.576V160.811C129.025 160.611 128.498 160.512 128.041 160.512C125.85 160.512 124.016 161.812 122.539 164.414V177H119.076ZM147.799 176.385C145.479 177.088 143.492 177.439 141.84 177.439C139.027 177.439 136.73 176.508 134.949 174.645C133.18 172.77 132.295 170.344 132.295 167.367C132.295 164.473 133.074 162.1 134.633 160.248C136.203 158.396 138.207 157.471 140.645 157.471C142.953 157.471 144.734 158.291 145.988 159.932C147.254 161.572 147.887 163.904 147.887 166.928L147.869 168H135.828C136.332 172.535 138.553 174.803 142.49 174.803C143.932 174.803 145.701 174.416 147.799 173.643V176.385ZM135.986 165.398H144.406C144.406 161.848 143.082 160.072 140.434 160.072C137.773 160.072 136.291 161.848 135.986 165.398ZM167.873 176.385C165.553 177.088 163.566 177.439 161.914 177.439C159.102 177.439 156.805 176.508 155.023 174.645C153.254 172.77 152.369 170.344 152.369 167.367C152.369 164.473 153.148 162.1 154.707 160.248C156.277 158.396 158.281 157.471 160.719 157.471C163.027 157.471 164.809 158.291 166.062 159.932C167.328 161.572 167.961 163.904 167.961 166.928L167.943 168H155.902C156.406 172.535 158.627 174.803 162.564 174.803C164.006 174.803 165.775 174.416 167.873 173.643V176.385ZM156.061 165.398H164.48C164.48 161.848 163.156 160.072 160.508 160.072C157.848 160.072 156.365 161.848 156.061 165.398ZM173.955 177V157.91H177.418V161.496C179.246 158.824 181.484 157.488 184.133 157.488C185.785 157.488 187.104 158.016 188.088 159.07C189.072 160.113 189.564 161.52 189.564 163.289V177H186.102V164.414C186.102 162.996 185.891 161.988 185.469 161.391C185.059 160.781 184.373 160.477 183.412 160.477C181.291 160.477 179.293 161.865 177.418 164.643V177H173.955Z" fill="#F9F9F9"/>
</svg>
