<svg width="67" height="67" viewBox="0 0 67 67" fill="none" xmlns="http://www.w3.org/2000/svg">
<g clip-path="url(#clip0)">
<path d="M33.8706 -5.00004C15.3681 -5.00004 -18.8706 -21.0001 -4.50004 28.5C-16 103.5 25.4975 71 44 71C101.5 74 71 47.0003 71 28.5C71 9.99749 93 -8.5 33.8706 -5.00004Z" fill="#00AB6B"/>
<path d="M52.258 23.1904L40.198 17.1604C40.1436 17.1332 40.0828 17.1206 40.0242 17.1185C40.02 17.1185 40.0158 17.1165 40.0117 17.1165C39.8651 17.1165 39.7185 17.1897 39.6411 17.3175L32.2083 29.3963L40.5058 42.8801L52.3753 23.5924C52.4611 23.4521 52.4088 23.2658 52.258 23.1904Z" fill="white"/>
<path d="M28.276 25.1523V38.1691L39.8461 43.9521L28.276 25.1523Z" fill="white"/>
<path d="M40.8574 44.4503L51.4811 49.7622C52.0611 50.0511 52.5364 49.758 52.5364 49.111V25.4726L40.8574 44.4503Z" fill="white"/>
<path d="M26.9989 23.2511L15.8706 17.688L15.1671 17.3363C15.0666 17.286 14.9703 17.2609 14.8824 17.2609C14.7588 17.2609 14.6542 17.3091 14.5788 17.3991C14.5076 17.4871 14.4636 17.6127 14.4636 17.7697V43.1669C14.4636 43.5982 14.7798 44.1112 15.1671 44.3038L26.1007 49.7706C26.2535 49.846 26.398 49.8815 26.5278 49.8815C26.8963 49.8815 27.1538 49.5968 27.1538 49.1173V23.5045C27.1559 23.3977 27.0952 23.2993 26.9989 23.2511Z" fill="white"/>
</g>
<defs>
<clipPath id="clip0">
<rect width="67" height="67" fill="white"/>
</clipPath>
</defs>
</svg>
